<?xml version="1.0" encoding="UTF-8"?>
<svg width="114px" height="30px" viewBox="0 0 114 30" version="1.1" xmlns="http://www.w3.org/2000/svg" xmlns:xlink="http://www.w3.org/1999/xlink">
    <!-- Generator: Sketch 41.2 (35397) - http://www.bohemiancoding.com/sketch -->
    <title>Group</title>
    <desc>Created with Sketch.</desc>
    <defs></defs>
    <g id="Page-1" stroke="none" stroke-width="1" fill="none" fill-rule="evenodd">
        <g id="Group" transform="translate(1.000000, 1.000000)" fill="#FFFFFF">
            <path d="M33.0841212,5.57284848 L33.0841212,6.99830303 L38.7655758,6.99830303 C37.3808485,9.2790303 35.6906667,11.0099394 33.6950303,12.150303 L34.0819394,13.4332121 C38.4601212,13.2092121 42.7364848,12.7815758 46.8906667,12.1299394 C47.3997576,12.8019394 47.8681212,13.4535758 48.2957576,14.1052121 L49.4972121,13.2499394 C48.4993939,11.7633939 47.0535758,10.0121212 45.1597576,8.01648485 L43.9786667,8.76993939 C44.630303,9.46230303 45.2615758,10.1750303 45.8724848,10.9081212 C42.7772121,11.4172121 39.5597576,11.7633939 36.2608485,11.9670303 C37.8288485,10.7044848 39.2339394,9.0550303 40.4557576,6.99830303 L49.9859394,6.99830303 L49.9859394,5.57284848 L33.0841212,5.57284848 Z M34.0412121,16.2026667 L34.0412121,17.6077576 L40.822303,17.6077576 L40.822303,21.0084848 L32.6157576,21.0084848 L32.6157576,22.4339394 L50.5357576,22.4339394 L50.5357576,21.0084848 L42.3292121,21.0084848 L42.3292121,17.6077576 L49.0084848,17.6077576 L49.0084848,16.2026667 L42.3292121,16.2026667 L42.3292121,13.8404848 L40.822303,13.8404848 L40.822303,16.2026667 L34.0412121,16.2026667 Z M60.2288485,4.5750303 L60.2288485,21.0084848 L52.8979394,21.0084848 L52.8979394,22.4339394 L71.0215758,22.4339394 L71.0215758,21.0084848 L61.7357576,21.0084848 L61.7357576,12.2928485 L69.2906667,12.2928485 L69.2906667,10.8673939 L61.7357576,10.8673939 L61.7357576,4.5750303 L60.2288485,4.5750303 Z M73.6281212,5.45066667 L73.6281212,6.87612121 L78.7393939,6.87612121 L76.1124848,17.526303 L85.6833939,17.526303 L85.1132121,21.110303 L73.2615758,21.110303 L73.2615758,22.5357576 L91.4666667,22.5357576 L91.4666667,21.110303 L86.5590303,21.110303 L88.1881212,10.2361212 L79.3910303,10.2361212 L80.2259394,6.87612121 L90.9372121,6.87612121 L90.9372121,5.45066667 L73.6281212,5.45066667 Z M85.9073939,16.1619394 L77.9044848,16.1619394 L79.0448485,11.6004848 L86.6201212,11.6004848 L85.9073939,16.1619394 Z M101.852121,9.01430303 L101.852121,10.3990303 L105.843394,10.3990303 L105.843394,11.3357576 C105.82303,12.2317576 105.761939,13.0870303 105.680485,13.9015758 L101.546667,13.9015758 L101.546667,15.3066667 L105.476848,15.3066667 C104.845576,18.4833939 103.379394,20.7641212 101.098667,22.1488485 L101.974303,23.3095758 C104.295758,21.8026667 105.863758,19.4812121 106.657939,16.3452121 C107.248485,18.6055758 108.714667,20.9066667 111.056485,23.2281212 L112.074667,22.1488485 C109.549576,19.8273939 108.042667,17.5466667 107.553939,15.3066667 L111.769212,15.3066667 L111.769212,13.9015758 L107.085576,13.9015758 C107.187394,12.9852121 107.248485,12.0281212 107.248485,11.0099394 L107.248485,10.3990303 L111.42303,10.3990303 L111.42303,9.01430303 L108.388848,9.01430303 C109.040485,7.95539394 109.651394,6.67248485 110.262303,5.12484848 L108.918303,4.61575758 C108.368485,6.18375758 107.696485,7.64993939 106.922667,9.01430303 L101.852121,9.01430303 Z M103.868121,4.73793939 L102.748121,5.45066667 C103.562667,6.63175758 104.193939,7.69066667 104.662303,8.66812121 L105.761939,7.91466667 C105.313939,6.99830303 104.682667,5.93939394 103.868121,4.73793939 Z M93.4215758,5.40993939 L93.4215758,6.77430303 L94.6637576,6.77430303 L94.6637576,19.2572121 L93.3808485,19.4608485 L93.7473939,20.8455758 C95.4986667,20.5197576 97.1684848,20.1328485 98.7975758,19.7255758 L98.7975758,23.350303 L100.202667,23.350303 L100.202667,19.3386667 C100.650667,19.2164848 101.11903,19.0739394 101.56703,18.9313939 L101.56703,17.5059394 C101.11903,17.6484848 100.67103,17.7910303 100.202667,17.9539394 L100.202667,6.77430303 L101.526303,6.77430303 L101.526303,5.40993939 L93.4215758,5.40993939 Z M96.0688485,18.9924848 L96.0688485,15.3473939 L98.7975758,15.3473939 L98.7975758,18.3612121 C97.9015758,18.5852121 97.0055758,18.7888485 96.0688485,18.9924848 Z M96.0688485,14.0033939 L96.0688485,11.0913939 L98.7975758,11.0913939 L98.7975758,14.0033939 L96.0688485,14.0033939 Z M96.0688485,9.76775758 L96.0688485,6.77430303 L98.7975758,6.77430303 L98.7975758,9.76775758 L96.0688485,9.76775758 Z" id="logo-black"></path>
            <path d="M22.4381977,5.66344578 C19.600424,4.03009472 12.9153862,0.156663978 12.9153862,0.156663978 C12.9153862,0.156663978 12.2631654,-0.195829973 11.5932682,0.156663978 L0.711953893,6.42589155 C0.711953893,6.42589155 -0.0108435378,6.85985931 0.000123553149,7.43714889 C0.0110906441,8.01443846 0.000123553149,20.4813618 0.000123553149,20.4813618 C0.000123553149,20.4813618 0.00928430466,20.912489 0.406939032,21.1891903 C0.804464705,21.4658917 11.6949398,27.7618468 11.6949398,27.7618468 C11.6949398,27.7618468 12.1431723,28.0487484 12.8135856,27.7618468 C13.4903212,27.3862406 23.8983722,21.3913902 23.8983722,21.3913902 C23.8983722,21.3913902 24.5015635,21.1331528 24.5085313,19.9757331 C24.5104658,19.6419614 24.5112405,18.3463848 24.5113695,16.7185857 L12.2574883,24.1438127 L12.2574883,21.3032021 C12.2574883,20.1364858 13.1606626,19.3664221 13.1606626,19.3664221 L23.9993988,12.8352128 C24.4084075,12.4080883 24.4927902,11.7238885 24.5102079,11.4651347 C24.509821,10.2786633 24.5093051,9.24222777 24.5089182,8.58565942 L12.2574883,16.0093369 L12.2574883,13.0396077 C12.2574883,11.8728914 13.0316377,11.3610651 13.0316377,11.3610651 L22.4381977,5.66344578 Z" id="Shape-path" stroke="#FFFFFF" stroke-width="2" fill-opacity="0.0186537591" transform="translate(12.255685, 13.944679) scale(-1, -1) rotate(-180.000000) translate(-12.255685, -13.944679) "></path>
        </g>
    </g>
</svg>