<svg width="42" height="42" viewBox="0 0 42 42" xmlns="http://www.w3.org/2000/svg" xmlns:xlink="http://www.w3.org/1999/xlink"><title>3</title><defs><path d="M7.131 2.99C7.291 1.34 8.756 0 10.42 0h12.162c1.656 0 3.128 1.344 3.288 2.99L28 25H5L7.131 2.99z" id="a"/><mask id="g" x="0" y="0" width="23" height="25" fill="#fff"><use xlink:href="#a"/></mask><path id="b" d="M1 23.5h31v5H1z"/><mask id="h" x="0" y="0" width="31" height="5" fill="#fff"><use xlink:href="#b"/></mask><circle id="c" cx="12" cy="37" r="2"/><mask id="i" x="0" y="0" width="4" height="4" fill="#fff"><use xlink:href="#c"/></mask><circle id="d" cx="21" cy="37" r="2"/><mask id="j" x="0" y="0" width="4" height="4" fill="#fff"><use xlink:href="#d"/></mask><path d="M25.779 15.004c.092-1.105 1.069-2.002 2.168-2.002h4.11l-.676 7.187h-6.035l.433-5.185z" id="e"/><mask id="k" x="0" y="0" width="6.712" height="7.186" fill="#fff"><use xlink:href="#e"/></mask><path d="M1.385 14.991c.092-1.105 1.07-2.002 2.169-2.002h4.11l-.677 7.187H.952l.433-5.185z" id="f"/><mask id="l" x="0" y="0" width="6.712" height="7.186" fill="#fff"><use xlink:href="#f"/></mask></defs><g transform="translate(4 2)" fill="none" fill-rule="evenodd"><use stroke="#3396F2" mask="url(#g)" stroke-width="3" xlink:href="#a"/><use stroke="#3396F2" mask="url(#h)" stroke-width="3" xlink:href="#b"/><path fill="#3396F2" d="M15.75 28h1.5v8h-1.5z"/><path fill="#3396F2" d="M12 35h9v1.5h-9z"/><use stroke="#3396F2" mask="url(#i)" stroke-width="3" fill="#FFF" xlink:href="#c"/><use stroke="#3396F2" mask="url(#j)" stroke-width="3" fill="#FFF" xlink:href="#d"/><use stroke="#3396F2" mask="url(#k)" stroke-width="3" transform="matrix(-1 0 0 1 57.404 0)" xlink:href="#e"/><use stroke="#3396F2" mask="url(#l)" stroke-width="3" xlink:href="#f"/></g></svg>