<svg width="187" height="137" viewBox="0 0 187 137" xmlns="http://www.w3.org/2000/svg"><title>products-others-id</title><g stroke="#4BC48D" stroke-width="2" fill="none" fill-rule="evenodd" stroke-linecap="round" stroke-linejoin="round"><path d="M114.041 43.684H55.384m-.001-16.875h58.657M60.69 86.377H5.366a4.378 4.378 0 0 1-4.365-4.365V5.365A4.377 4.377 0 0 1 5.366 1h115.902a4.38 4.38 0 0 1 4.367 4.365v44.28m59.69 29.775h-124m0-20.846h124"/><path d="M181.354 135.022H64.661a3.982 3.982 0 0 1-3.97-3.97V53.614a3.982 3.982 0 0 1 3.97-3.97h116.693a3.982 3.982 0 0 1 3.971 3.97v77.436a3.982 3.982 0 0 1-3.97 3.97z"/><path d="M131.253 102.91H75.619a1.991 1.991 0 0 1-1.985-1.986v-9.577a1.99 1.99 0 0 1 1.985-1.985h55.634a1.99 1.99 0 0 1 1.985 1.985v9.577a1.991 1.991 0 0 1-1.985 1.986zm17.481-7.609h19.368m-94.468 22.831h94.468M43.413 32.756c0 5.826-4.723 10.55-10.55 10.55-5.826 0-10.55-4.724-10.55-10.55 0-5.827 4.724-10.55 10.55-10.55 5.827 0 10.55 4.723 10.55 10.55zm4.961 32.415v-6.357c0-8.528-6.98-12.31-15.51-12.31s-15.51 3.782-15.51 12.31v6.357h31.02z"/></g></svg>