<svg width="39" height="40" viewBox="0 0 39 40" xmlns="http://www.w3.org/2000/svg"><title>products-icon-others</title><g stroke-width="2" stroke="#ADADAD" fill="none" fill-rule="evenodd"><path d="M18 27.715l9.082 9.242c2.354 2.373 6.054 2.373 8.409 0a5.971 5.971 0 0 0 0-8.479L27.08 20m-11.614-3.49L10 11"/><path d="M36.615 7.465l-4.962 5.002-5.97-6.02 4.961-5.001a10.104 10.104 0 0 0-3.616-.424c-4.709.424-8.493 4.663-8.409 9.41 0 .933.168 1.866.42 2.714L2.895 27.559c-2.438 2.12-2.522 5.934-.252 8.223 2.27 2.29 5.97 2.205 8.157-.254L25.094 19.25c1.43.424 3.028.593 4.71.254 3.363-.678 6.138-3.222 7.063-6.528.42-2.035.252-3.9-.252-5.51zM6.71 11.58l3.615-1.187 1.177-3.56L6.71 2 2 6.833zM27 28l3.364 3.391"/></g></svg>