<svg width="42" height="42" viewBox="0 0 42 42" xmlns="http://www.w3.org/2000/svg"><title>2</title><g fill="none" fill-rule="evenodd"><path d="M5 4.372V24H2v1.5h3V40h1.5V25.5h32.023l-1.178 1.177a.747.747 0 0 0-.006 1.068c.295.295.77.29 1.067-.007l2.999-2.999-2.999-2.998a.747.747 0 0 0-1.067-.007.753.753 0 0 0 .006 1.067L38.544 24H6.5V4.305l1.221 1.221c.305.305.775.3 1.068.007a.753.753 0 0 0-.007-1.067L5.784 1.467 2.785 4.466a.747.747 0 0 0-.007 1.067c.295.295.771.29 1.068-.007L5 4.372z" fill="#3396F2"/><path d="M6.422 24.526s2.239-12.638 8.403-12.638c7.447 0 7.265 19.127 13.72 19.127 4.044 0 4.987-6.489 4.987-6.489" stroke="#3396F2" stroke-width="1.5"/></g></svg>