<svg width="213" height="142" viewBox="0 0 213 142" xmlns="http://www.w3.org/2000/svg"><title>Page 1</title><g fill="none" fill-rule="evenodd"><path d="M85.567 98.554s-6.344-5.89-12.755-13.73c-6.77-8.274-11.528-17.628-11.528-19.99a4.308 4.308 0 0 1 4.295-4.295h143.45" stroke="#38B0E5" stroke-width="2" stroke-linecap="round" stroke-linejoin="round"/><path d="M1.795 95.79c26.26 0 26.26 9.546 52.521 9.546 26.26 0 26.26-9.546 52.52-9.546 26.262 0 26.262 9.546 52.525 9.546 26.262 0 26.262-9.546 52.527-9.546M69.133 78.538h138.463M106.23 29h81.036M129.043 8.538h17.783m5.399 0h8.892M106.23 60.54V27.561a4.308 4.308 0 0 1 4.293-4.296h76.9" stroke="#38B0E5" stroke-width="2" stroke-linecap="round" stroke-linejoin="round"/><path d="M132.785 42.794a6.906 6.906 0 0 1-6.907 6.906 6.906 6.906 0 1 1 0-13.812 6.906 6.906 0 0 1 6.907 6.906zm22.915 0a6.906 6.906 0 0 1-6.907 6.906 6.906 6.906 0 1 1 0-13.812 6.906 6.906 0 0 1 6.906 6.906zm-26.657-19.527V6.09a4.306 4.306 0 0 1 4.294-4.294h9.195a4.305 4.305 0 0 1 4.294 4.294v17.177m5.399 0V5.135c0-1.246.966-2.265 2.148-2.265h4.597c1.18 0 2.147 1.02 2.147 2.265v18.132M26.657 11.276s3.869-3.73 7.835-1.353c4.276 2.563 3.314 7.218 3.314 7.218s.883-7.362 4.827-9.017c3.493-1.467 6.24.905 6.24.905m2.821 9.186s1.382-1.955 3.315-1.248c2.087.766 2.056 2.883 2.056 2.883s-.23-3.296 1.358-4.35c1.407-.935 2.807-.127 2.807-.127m64.256 110.877c27.483 0 25.892 9.811 52.674 9.811 12.519 0 19.188-2.144 25.354-4.427m-104.627-.004c4.484-1.661 8.705-3.395 14.717-4.43m-48.672 6.778c.313 1.123-1.03 2.478-2.997 3.027-1.968.549-3.819.084-4.132-1.037-.313-1.123-.202-2.85 2.997-3.028 2.045-.114 3.819-.086 4.132 1.038z" stroke="#38B0E5" stroke-width="2" stroke-linecap="round" stroke-linejoin="round"/><path d="M62.068 129.71c-.396-.055-.722-.348-.58-.723.206-.55.32-1.143.32-1.757 0-2.99-2.669-5.417-5.962-5.417-3.108 0-5.655 2.164-5.93 4.922-.005.058-3.07 1.665-3.07 1.665s.68.677 1.146.929c1.289.692 2.631.517 2.954.716.454.278.174 1.267-.277 1.635-1.958 1.594-2.184 3.914-1.559 5.58 1.205 3.21 5.413 3.49 10.892 3.102 6.627-.47 8.416-4.476 8.517-7.465.051-1.457-.224-2.42-1.315-2.92-.862-.394-2.23-.44-4.355-.276-.248.019-.472.052-.78.01z" stroke="#38B0E5" stroke-width="2" stroke-linecap="round" stroke-linejoin="round"/><path d="M55.393 126.986a1.268 1.268 0 1 1-2.537-.001 1.268 1.268 0 0 1 2.537 0" fill="#38B0E5"/></g></svg>