<svg width="41" height="46" viewBox="0 0 41 46" xmlns="http://www.w3.org/2000/svg" xmlns:xlink="http://www.w3.org/1999/xlink"><title>testimonial-icon-applepay</title><defs><path d="M48.04 23.992c0 4.15 2.203 7.336 6.611 9.556-1.184 3.345-2.897 6.256-5.14 8.735C47.27 44.76 45.221 46 43.367 46c-.872 0-2.064-.281-3.575-.844l-.724-.274c-1.48-.562-2.788-.843-3.925-.843-1.074 0-2.25.22-3.527.661l-.912.32-1.144.455a7.519 7.519 0 0 1-2.734.525c-2.165 0-4.556-1.74-7.172-5.223C15.884 35.79 14 30.355 14 24.471c0-4.181 1.176-7.549 3.528-10.103 2.352-2.554 5.467-3.832 9.345-3.832 1.448 0 2.803.259 4.065.776l.864.342.912.365c.81.334 1.464.502 1.962.502.639 0 1.347-.145 2.126-.434l1.192-.456.887-.32c1.418-.5 2.983-.752 4.696-.752 4.065 0 7.336 1.513 9.813 4.539-3.567 2.463-5.35 5.428-5.35 8.894zM43.764 0c.047.532.07.943.07 1.232 0 2.63-.981 4.937-2.943 6.921-1.963 1.984-4.245 2.976-6.846 2.976-.078-.593-.117-1.018-.117-1.277 0-2.235.912-4.333 2.734-6.294 1.822-1.962 3.933-3.11 6.331-3.444.171-.03.428-.068.771-.114z" id="a"/><mask id="b" x="0" y="0" width="40.651" height="46" fill="#fff"><use xlink:href="#a"/></mask></defs><use mask="url(#b)" xlink:href="#a" transform="translate(-14)" stroke="#212121" stroke-width="2" fill="none" fill-rule="evenodd"/></svg>