<svg width="38" height="47" viewBox="0 0 38 47" xmlns="http://www.w3.org/2000/svg"><title>Page 1</title><g stroke-width="2" stroke="#21B0CD" fill="none" fill-rule="evenodd" stroke-linecap="round" stroke-linejoin="round"><path d="M37 26.688c0 12.189-14.85 18.9-17.775 18.9-2.925 0-17.775-6.711-17.775-18.9C1.45 14.499 19.225 1.45 19.225 1.45s4.443 3.263 8.887 8.048C32.558 14.284 37 20.594 37 26.688z"/><path d="M21.377 14.619s2.349 8.019 2.348 16.093c0 8.126-4.5 14.876-4.5 14.876"/><path d="M10.607 27.73s.979 2.826 3.183 5.562c3.262 4.05 7.995 6.274 7.995 6.274m1.94-11.836s2.218-.485 3.825-3.052c1.065-1.702 1.012-3.052 1.012-3.052"/></g></svg>