<svg width="36" height="43" viewBox="0 0 36 43" xmlns="http://www.w3.org/2000/svg" xmlns:xlink="http://www.w3.org/1999/xlink"><title>Group 5</title><defs><rect id="a" y="4" width="36" height="38" rx="4"/><mask id="b" x="0" y="0" width="36" height="38" fill="#fff"><use xlink:href="#a"/></mask></defs><g transform="translate(0 1)" stroke="#21B0CD" fill="none" fill-rule="evenodd"><use mask="url(#b)" stroke-width="4" xlink:href="#a"/><path d="M5 5V1.426C5 .64 5.796 0 6.775 0h4.45C12.205 0 13 .64 13 1.426V5m10 0V1.426C23 .64 23.796 0 24.775 0h4.45C30.205 0 31 .64 31 1.426V5" stroke-width="2"/><g transform="translate(1 18)" stroke-width="2"><path d="M3.769 5C1.687 5 0 3.21 0 1m34 0c0 2.21-1.686 4-3.769 4"/><rect x="7" width="6" height="10" rx="2"/><rect x="21" width="6" height="10" rx="2"/><path d="M12.833 5h8.68M27 5h4.382M3 5h4.382"/></g></g></svg>