<svg width="47" height="47" viewBox="0 0 47 47" xmlns="http://www.w3.org/2000/svg"><title>Page 1</title><g stroke="#21B0CD" stroke-width="2" fill="none" fill-rule="evenodd"><path d="M45.889 23.657c-.003 12.28-9.96 22.234-22.241 22.231-12.28-.002-22.234-9.96-22.231-22.24.002-12.28 9.96-22.234 22.24-22.231 12.28.002 22.234 9.96 22.232 22.24z"/><path d="M7.552 29.442a2.329 2.329 0 0 0 1.305 3.124c1.17.446 2.482-.171 2.99-1.315l1.958-4.333-2.625-5.794-3.628 8.318zm21.26-13.327c-.305-.716-.92-1.282-1.68-1.444a2.333 2.333 0 0 0-2.653 1.392l-3.072 7.483a.239.239 0 0 1-.441.003l-3.156-7.395c-.3-.705-.9-1.265-1.646-1.436a2.333 2.333 0 0 0-2.66 1.325l-.426.96 5.976 13.935c.305.716.92 1.282 1.68 1.444a2.33 2.33 0 0 0 2.652-1.392l3.072-7.48a.239.239 0 0 1 .44-.002l3.01 7.06c.302.71.905 1.272 1.658 1.44a2.331 2.331 0 0 0 2.657-1.348l.417-.964-5.828-13.58zm6.634-.028l-1.549 3.704 2.73 5.243 3.135-7.192a2.33 2.33 0 0 0-1.427-3.142c-1.159-.375-2.407.27-2.89 1.387z" stroke-linecap="round" stroke-linejoin="round"/></g></svg>