<svg width="47" height="47" viewBox="0 0 47 47" xmlns="http://www.w3.org/2000/svg"><title>testimonial-icon-cmb</title><g stroke="#212121" fill="none" fill-rule="evenodd"><path d="M23.657 1.417c12.28.002 22.234 9.96 22.232 22.24-.003 12.28-9.96 22.234-22.241 22.231-12.28-.002-22.234-9.96-22.231-22.24.002-12.28 9.96-22.234 22.24-22.231z"/><path d="M11.7 20.11l-4.148 9.332a2.329 2.329 0 0 0 1.305 3.124c1.17.446 2.482-.171 2.99-1.315l2.351-5.29-2.499-5.85zm17.112-3.995c-.305-.716-.92-1.282-1.68-1.444a2.333 2.333 0 0 0-2.653 1.392l-3.072 7.483a.239.239 0 0 1-.441.003l-3.156-7.395c-.3-.705-.9-1.265-1.646-1.436a2.333 2.333 0 0 0-2.66 1.325l-.426.96 5.976 13.935c.305.716.92 1.282 1.68 1.444a2.33 2.33 0 0 0 2.652-1.392l3.072-7.48a.239.239 0 0 1 .44-.002l3.01 7.06c.302.71.905 1.272 1.658 1.44a2.331 2.331 0 0 0 2.657-1.348l.417-.964-5.828-13.58zm9.523-1.415c-1.159-.375-2.407.27-2.89 1.388l-2.069 4.932 2.528 5.897 3.858-9.075a2.33 2.33 0 0 0-1.427-3.142z" stroke-linecap="round" stroke-linejoin="round"/></g></svg>